<?xml version="1.0" standalone="no"?><!DOCTYPE svg PUBLIC "-//W3C//DTD SVG 1.1//EN" "http://www.w3.org/Graphics/SVG/1.1/DTD/svg11.dtd"><svg t="1587990235188" class="icon" viewBox="0 0 1024 1024" version="1.1" xmlns="http://www.w3.org/2000/svg" p-id="3037" xmlns:xlink="http://www.w3.org/1999/xlink" width="24" height="24"><defs><style type="text/css"></style></defs><path d="M733.726 647.766 778.98 693.02 960 512 778.98 330.98 733.724 376.236 837.49 480 384 480 384 544 837.49 544Z" p-id="3038"></path><path d="M782.982 783.532C710.458 856.058 614.036 896 511.472 896c-102.574 0-199.012-39.942-271.544-112.47C167.394 711.002 128 614.57 128 512c0-102.562 39.394-198.99 111.93-271.522C312.464 167.946 408.9 128 511.472 128c102.558 0 198.982 39.946 271.51 112.476 5.054 5.056 9.932 10.242 14.666 15.524l81.462 0c-80.948-116.056-215.418-192-367.638-192C264.042 64 64 264.596 64 512c0 247.43 200.042 448 447.472 448 152.224 0 286.7-75.94 367.644-192l-81.46 0C792.92 773.286 788.042 778.472 782.982 783.532z" p-id="3039"></path></svg>